<?xml version="1.0" encoding="UTF-8"?>
<svg xmlns="http://www.w3.org/2000/svg" xmlns:xlink="http://www.w3.org/1999/xlink" viewBox="0 0 256 256" width="256px" height="256px">
<g id="surface355373392">
<path style=" stroke:none;fill-rule:nonzero;fill:rgb(100%,0%,0%);fill-opacity:1;" d="M 128.921875 20 C 95.394531 19.601562 65.996094 42.375 55.554688 74.234375 C 44.511719 107.933594 61.542969 134.5625 74.492188 154.796875 C 80.054688 163.492188 85.042969 171.28125 87.054688 178.09375 C 88.078125 181.5625 91.140625 184 94.757812 184 L 100 184 C 100 172.394531 92.867188 161.242188 84.601562 148.328125 C 74.941406 133.234375 64 116.132812 64 96 C 64 61 92.238281 32.472656 127.132812 32 C 154.636719 31.636719 178.386719 49.664062 188.117188 75.390625 C 199.246094 104.8125 184.195312 128.332031 171.398438 148.328125 C 163.132812 161.242188 156 172.394531 156 184 L 161.242188 184 C 164.859375 184 167.921875 181.558594 168.945312 178.09375 C 170.960938 171.28125 175.945312 163.5 181.507812 154.804688 C 191.53125 139.140625 204 119.644531 204 96 C 204 54.398438 170.402344 20.5 128.921875 20 Z M 34.617188 26.195312 L 27.242188 35.664062 L 45.382812 49.804688 L 52.757812 40.335938 Z M 221.390625 26.210938 L 203.242188 40.34375 L 210.617188 49.8125 L 228.765625 35.671875 Z M 8 92 L 8 104 L 28 104 L 28 92 Z M 228 92 L 228 104 L 248 104 L 248 92 Z M 107.210938 99.023438 L 105.789062 99.828125 C 100.828125 102.652344 98.726562 108.660156 100.742188 114 C 105.25 125.941406 112 149.554688 112 184 L 124 184 C 124 129.039062 107.894531 100.226562 107.210938 99.023438 Z M 148.789062 99.023438 C 148.105469 100.222656 132 129.039062 132 184 L 144 184 C 144 149.550781 150.746094 125.933594 155.25 114 C 157.265625 108.667969 155.175781 102.671875 150.226562 99.84375 Z M 210.617188 142.195312 L 203.242188 151.664062 L 221.382812 165.804688 L 228.757812 156.335938 Z M 45.375 142.203125 L 27.234375 156.34375 L 34.609375 165.804688 L 52.75 151.671875 Z M 92 196 L 94.4375 213.046875 C 95.378906 219.640625 100.304688 224.953125 106.804688 226.398438 L 112.460938 227.65625 C 114.121094 234.722656 120.425781 240 128 240 C 135.574219 240 141.878906 234.722656 143.539062 227.65625 L 149.195312 226.398438 C 155.695312 224.953125 160.621094 219.640625 161.5625 213.046875 L 164 196 Z M 92 196 "/>
</g>
</svg>
